<?xml version="1.0" encoding="UTF-8" standalone="no"?>
<!DOCTYPE svg PUBLIC "-//W3C//DTD SVG 1.1//EN" "http://www.w3.org/Graphics/SVG/1.1/DTD/svg11.dtd">
<svg width="100%" height="100%" viewBox="0 0 1024 1024" version="1.1" xmlns="http://www.w3.org/2000/svg" xmlns:xlink="http://www.w3.org/1999/xlink" xml:space="preserve" xmlns:serif="http://www.serif.com/" style="fill-rule:evenodd;clip-rule:evenodd;stroke-linejoin:round;stroke-miterlimit:2;">
    <g id="Hand" transform="matrix(1,0,0,1,-5,0)">
        <g transform="matrix(24.6175,0,0,24.6175,68.6776,33.6107)">
            <path d="M26.992,19.016C26.737,18.761 26.439,18.546 26.117,18.38L25.717,17.024L17.705,16.968L17.398,18.059C16.931,18.154 16.357,18.448 16.005,18.777L12.394,14.823C11.577,15.187 11.005,16.003 11.005,16.956L11.005,17.916L7.005,22.082L7.021,24.27L17.005,34.999C17.005,34.999 27.523,19.711 27.548,19.741C27.421,19.517 27.037,19.038 26.992,19.016Z" style="fill:rgb(235,125,40);fill-rule:nonzero;"/>
        </g>
        <path d="M291.761,649.048C316.97,649.048 339.15,636.099 352.074,616.504C355.102,621.009 358.745,625.021 362.684,628.738C391.856,656.187 437.374,654.439 465.265,626.621C469.007,622.88 472.724,619.113 475.58,614.608L475.506,614.534C480.454,617.365 487.175,624.43 511.792,624.43L574.247,624.43C565.138,631.299 556.818,639.767 549.039,649.048C518.808,685.162 499.484,737.819 499.484,796.753C499.484,803.547 504.998,809.062 511.792,809.062C518.587,809.062 524.101,803.547 524.101,796.753C524.101,734.027 547.635,679.204 582.617,649.048C600.637,633.514 621.611,624.43 644.111,624.43C661.664,626.375 664.962,599.813 647.189,599.813L511.792,599.813C484.615,599.813 462.557,577.756 462.557,550.578C462.557,523.4 484.615,501.343 511.792,501.343L708.732,501.343C729.854,501.343 749.597,516.015 755.826,536.177L782.585,624.43C785.12,632.677 794.377,670.49 792.703,678.367C792.703,796.753 677.099,919.84 536.41,919.84C375.485,919.84 244.84,791.066 241.345,630.979L241.689,631.225C254.367,642.18 270.639,649.048 288.709,649.048L291.761,649.048ZM288.167,427.49L292.303,427.49C318.373,427.49 339.47,448.612 339.47,474.682L339.47,577.239C339.47,603.309 318.373,624.43 292.303,624.43L288.167,624.43C262.097,624.43 241,603.309 241,577.239L241,474.682C241,448.612 262.097,427.49 288.167,427.49ZM458.471,500.358L457.092,501.885C445.424,514.907 437.94,531.696 437.94,550.578C437.94,552.129 438.26,553.606 438.383,555.132C439.466,571.823 445.965,586.938 456.305,598.804C454.557,601.979 452.292,604.786 449.929,607.494C440.919,617.759 428.019,624.43 413.322,624.43C386.145,624.43 364.087,602.373 364.087,575.195L364.087,427.49C364.087,416.634 367.706,406.689 373.664,398.54C382.624,386.305 396.976,378.256 413.322,378.256C440.5,378.256 462.557,400.313 462.557,427.49L462.557,495.878C461.056,497.232 459.874,498.906 458.471,500.358ZM673.8,476.725L511.792,476.725C506.672,476.725 501.675,477.242 496.85,478.227L495.052,471.383L414.479,164.551C414.479,164.551 404.239,116.375 452.39,106.158C500.542,95.918 510.783,144.069 510.783,144.069L587.023,428.869C598.003,429.46 608.638,430.42 619.149,431.503L669.886,172.724C669.886,172.724 674.514,123.711 723.552,128.314C772.565,132.942 767.937,181.956 767.937,181.956L717.102,456.711L711.662,486.105C700.239,480.32 687.487,476.725 673.8,476.725Z" style="fill:rgb(255,203,61);fill-rule:nonzero;"/>
    </g>
</svg>
